<svg width="81" height="77" viewBox="0 0 81 77" fill="none" xmlns="http://www.w3.org/2000/svg">
<path d="M10 7L12 9L14 11L16 13L17 14L18 15L19 16L20 17L21 18L22 19L23 20L25 22L26.5 23.5L29 26L31.5 28.5L33.5 30.5L35 32L37 34L39 36L41 38L43.5 40.5L46 43L49.5 46.5L53.5 50.5L58.5 55.5M58.5 55.5L64 61L69 66M58.5 55.5L69 66M69 66L73.5 70.5" stroke="#93A2B7" stroke-width="10" stroke-linecap="round"/>
<path d="M74.8691 8.43079L72.7828 10.3407L70.6966 12.2505L68.6104 14.1604L67.5672 15.1153L66.5241 16.0703L65.481 17.0252L64.4379 17.9801L63.3948 18.9351L62.3516 19.89L61.3085 20.8449L59.2223 22.7548L57.6576 24.1872L55.0498 26.5746L52.442 28.9619L50.3558 30.8718L48.7911 32.3042L46.7048 34.214L44.6186 36.1239L42.5324 38.0338L39.9246 40.4211L37.3168 42.8085L33.6658 46.1507L29.4934 49.9705L24.2778 54.7451M24.2778 54.7451L18.5406 59.9973L13.325 64.772M24.2778 54.7451L13.325 64.772M13.325 64.772L8.63097 69.0692" stroke="#93A2B7" stroke-width="10" stroke-linecap="round"/>
</svg>
