<svg width="491" height="420" viewBox="0 0 491 420" fill="none" xmlns="http://www.w3.org/2000/svg">
<path d="M261.226 157.794C260.434 100.799 202.203 48.6032 151.819 57.304C97.9768 58.0522 55.4878 103.035 60.676 155.58C65.8642 208.124 109.561 254.91 166.055 254.125C219.898 253.377 261.967 211.084 261.226 157.794Z" fill="#FF0000"/>
<path d="M436.5 151C437.292 207.994 379.38 260.781 328.774 253.484C274.932 254.232 235.676 211.069 234.935 157.778C234.195 104.488 281.041 57.1281 337.536 56.3431C391.379 55.595 435.76 97.7098 436.5 151Z" fill="#FF0000"/>
<path d="M256.618 372.482C253.041 376.024 251.253 377.795 249.197 378.453C247.388 379.032 245.443 379.024 243.639 378.43C241.589 377.755 239.815 375.969 236.268 372.397L102.077 237.279C101.772 236.971 101.619 236.817 101.474 236.656C101.345 236.513 101.22 236.366 101.101 236.215C100.966 236.045 100.84 235.868 100.587 235.515L87.877 217.766C82.3112 209.994 79.5284 206.108 79.6898 202.965C79.8302 200.231 81.2069 197.71 83.4306 196.115C85.9874 194.28 90.7612 194.52 100.309 195.001L385.796 209.373C395.8 209.877 400.802 210.128 403.182 212.282C405.251 214.154 406.334 216.88 406.115 219.661C405.864 222.861 402.4 226.478 395.473 233.713L372.261 257.957L256.618 372.482Z" fill="#FF0000"/>
</svg>
