<svg width="491" height="358" viewBox="0 0 491 358" fill="none" xmlns="http://www.w3.org/2000/svg">
<path d="M261.226 120.794C260.434 63.7993 202.203 11.6033 151.819 20.3041C97.9768 21.0523 55.4878 66.0356 60.676 118.58C65.8642 171.124 109.561 217.91 166.055 217.125C219.898 216.377 261.967 174.084 261.226 120.794Z" fill="#DB2626"/>
<path d="M435.347 112.993C436.139 169.988 379.38 223.781 328.774 216.484C274.932 217.232 235.676 174.069 234.935 120.778C234.195 67.488 281.041 20.128 337.536 19.343C391.379 18.5949 434.606 59.7028 435.347 112.993Z" fill="#DB2626"/>
<path d="M256.618 335.482C253.041 339.024 251.253 340.795 249.197 341.453C247.388 342.032 245.443 342.024 243.639 341.43C241.589 340.755 239.815 338.969 236.268 335.397L102.077 200.279C101.772 199.971 101.619 199.817 101.474 199.656C101.345 199.513 101.22 199.366 101.101 199.215C100.966 199.045 100.84 198.868 100.587 198.515L87.877 180.766C82.3112 172.994 79.5284 169.108 79.6898 165.965C79.8302 163.231 81.2069 160.71 83.4306 159.115C85.9874 157.28 90.7612 157.52 100.309 158.001L385.796 172.373C395.8 172.877 400.802 173.128 403.182 175.282C405.251 177.154 406.334 179.88 406.115 182.661C405.864 185.861 402.4 189.478 395.473 196.713L372.261 220.957L256.618 335.482Z" fill="#DB2626"/>
</svg>
