<svg width="141" height="117" viewBox="0 0 141 117" fill="none" xmlns="http://www.w3.org/2000/svg">
<path d="M113.561 58C115.46 58 117.012 56.4581 116.882 54.5631C116.251 45.3837 113.1 36.5601 107.774 29.1643C101.786 20.8493 93.372 14.7888 83.7978 11.8951C74.2237 9.00137 64.0078 9.431 54.6879 13.1193C46.3844 16.4054 39.1923 22.1198 33.9549 29.5442C32.8769 31.0722 33.3555 33.1605 34.9163 34.1904V34.1904C36.5644 35.2779 38.7751 34.7674 39.9435 33.1757C44.3559 27.165 50.2997 22.5327 57.1272 19.8308C65.0534 16.694 73.7416 16.3286 81.884 18.7896C90.0265 21.2506 97.1825 26.4048 102.275 33.4764C106.705 39.6284 109.365 46.942 109.982 54.5642C110.136 56.4575 111.661 58 113.561 58V58Z" fill="white"/>
<path d="M39.396 33.5496C40.2929 31.8373 39.6318 29.7221 37.9195 28.8252C36.2072 27.9283 34.092 28.5894 33.1951 30.3017L36.2955 31.9256L39.396 33.5496ZM22.925 52.1184C23.5016 53.9634 25.4647 54.9917 27.3097 54.4151L57.3756 45.0189C59.2206 44.4423 60.2489 42.4792 59.6723 40.6342C59.0957 38.7892 57.1326 37.761 55.2876 38.3376L28.5623 46.6897L20.2101 19.9644C19.6335 18.1195 17.6704 17.0912 15.8254 17.6678C13.9804 18.2444 12.9522 20.2075 13.5288 22.0525L22.925 52.1184ZM36.2955 31.9256L33.1951 30.3017L23.1652 49.4505L26.2657 51.0744L29.3661 52.6984L39.396 33.5496L36.2955 31.9256Z" fill="white"/>
<path d="M27.5456 60.0299C25.6466 60.0737 24.1304 61.651 24.3044 63.5426C25.1473 72.7049 28.5002 81.4535 33.9954 88.7245C40.1736 96.8992 48.7255 102.764 58.3639 105.436C68.0022 108.108 78.2054 107.443 87.4378 103.541C95.6633 100.064 102.722 94.1853 107.786 86.6421C108.829 85.0895 108.302 83.0129 106.718 82.0193V82.0193C105.045 80.9701 102.847 81.5314 101.716 83.1496C97.4431 89.2605 91.6077 94.0286 84.8443 96.8873C76.9926 100.206 68.3151 100.772 60.1181 98.4993C51.9211 96.2267 44.6481 91.239 39.3937 84.2867C34.8227 78.2385 31.9946 70.9882 31.2021 63.3823C31.0052 61.493 29.4446 59.9861 27.5456 60.0299V60.0299Z" fill="white"/>
<path d="M102.254 82.7633C101.397 84.4958 102.107 86.5952 103.84 87.4524C105.572 88.3095 107.671 87.5999 108.529 85.8673L105.392 84.3153L102.254 82.7633ZM118.293 63.8195C117.674 61.9883 115.687 61.0056 113.856 61.6246L84.015 71.7118C82.1838 72.3308 81.2011 74.3171 81.8201 76.1483C82.4391 77.9795 84.4254 78.9622 86.2566 78.3432L112.782 69.3768L121.749 95.9023C122.368 97.7335 124.354 98.7162 126.185 98.0972C128.016 97.4782 128.999 95.4919 128.38 93.6607L118.293 63.8195ZM105.392 84.3153L108.529 85.8673L118.114 66.4923L114.977 64.9403L111.84 63.3882L102.254 82.7633L105.392 84.3153Z" fill="white"/>
</svg>
