<svg width="60" height="60" viewBox="0 0 60 60" fill="none" xmlns="http://www.w3.org/2000/svg">
<path d="M24.4999 1.5C37.2024 1.5 47.4999 11.7975 47.4999 24.5C47.4999 29.4067 45.9617 33.9534 43.3436 37.6875L57.328 51.6719C58.8901 53.234 58.8901 55.766 57.328 57.3281C55.7659 58.8902 53.2339 58.8902 51.6718 57.3281L37.6874 43.3438C33.9533 45.9618 29.4066 47.5 24.4999 47.5C11.7973 47.5 1.49988 37.2025 1.49988 24.5C1.49988 11.7975 11.7973 1.5 24.4999 1.5ZM24.4999 7.5C15.111 7.5 7.49988 15.1112 7.49988 24.5C7.49988 33.8888 15.111 41.5 24.4999 41.5C33.8887 41.5 41.4999 33.8888 41.4999 24.5C41.4999 15.1112 33.8887 7.5 24.4999 7.5Z" fill="#9BA2AE"/>
</svg>
